name ./resultDataOpenSim/trcMotMarkerGrf/sub06/grf-02-01.mot
datacolumns 19
datarows 25
range 1.52400000 1.62000000
endheader

                time	     ground_force_vx	     ground_force_vy	     ground_force_vz	     ground_force_px	     ground_force_py	     ground_force_pz	   l_ground_force_vx	   l_ground_force_vy	   l_ground_force_vz	   l_ground_force_px	   l_ground_force_py	   l_ground_force_pz	     ground_torque_x	     ground_torque_y	     ground_torque_z	   l_ground_torque_x	   l_ground_torque_y	   l_ground_torque_z	
          1.52400000	        134.96090706	        742.67415490	        -13.16688763	          0.88639701	          0.00000000	          0.06943700	          0.00000000	          0.00000000	          0.00000000	          0.00000000	          0.00000000	          0.00000000	          0.00000000	          4.51849373	          0.00000000	          0.00000000	          0.00000000	          0.00000000	
          1.52800000	        141.60603911	        752.41282659	        -15.36529092	          0.88695221	          0.00000000	          0.06904230	          0.00000000	          0.00000000	          0.00000000	          0.00000000	          0.00000000	          0.00000000	          0.00000000	          4.65567822	          0.00000000	          0.00000000	          0.00000000	          0.00000000	
          1.53200000	        148.00430829	        760.80219189	        -17.29108328	          0.88753184	          0.00000000	          0.06865257	          0.00000000	          0.00000000	          0.00000000	          0.00000000	          0.00000000	          0.00000000	          0.00000000	          4.77178461	          0.00000000	          0.00000000	          0.00000000	          0.00000000	
          1.53600000	        154.09091064	        767.78542895	        -18.64736304	          0.88814753	          0.00000000	          0.06825897	          0.00000000	          0.00000000	          0.00000000	          0.00000000	          0.00000000	          0.00000000	          0.00000000	          4.86351543	          0.00000000	          0.00000000	          0.00000000	          0.00000000	
          1.54000000	        159.91981302	        773.32102679	        -19.23532081	          0.88879860	          0.00000000	          0.06785601	          0.00000000	          0.00000000	          0.00000000	          0.00000000	          0.00000000	          0.00000000	          0.00000000	          4.92914485	          0.00000000	          0.00000000	          0.00000000	          0.00000000	
          1.54400000	        165.67871282	        777.35209006	        -18.96923990	          0.88947619	          0.00000000	          0.06744060	          0.00000000	          0.00000000	          0.00000000	          0.00000000	          0.00000000	          0.00000000	          0.00000000	          4.96807470	          0.00000000	          0.00000000	          0.00000000	          0.00000000	
          1.54800000	        171.64102209	        779.77125972	        -17.89130853	          0.89014837	          0.00000000	          0.06700987	          0.00000000	          0.00000000	          0.00000000	          0.00000000	          0.00000000	          0.00000000	          0.00000000	          4.98015329	          0.00000000	          0.00000000	          0.00000000	          0.00000000	
          1.55200000	        178.03909016	        780.40933764	        -16.19834507	          0.89075078	          0.00000000	          0.06656575	          0.00000000	          0.00000000	          0.00000000	          0.00000000	          0.00000000	          0.00000000	          0.00000000	          4.96574989	          0.00000000	          0.00000000	          0.00000000	          0.00000000	
          1.55600000	        184.94317187	        779.07219745	        -14.22194741	          0.89124853	          0.00000000	          0.06611970	          0.00000000	          0.00000000	          0.00000000	          0.00000000	          0.00000000	          0.00000000	          0.00000000	          4.92715254	          0.00000000	          0.00000000	          0.00000000	          0.00000000	
          1.56000000	        192.24316716	        775.61092762	        -12.32324219	          0.89166586	          0.00000000	          0.06568142	          0.00000000	          0.00000000	          0.00000000	          0.00000000	          0.00000000	          0.00000000	          0.00000000	          4.87027836	          0.00000000	          0.00000000	          0.00000000	          0.00000000	
          1.56400000	        199.72002762	        769.95609492	        -10.78438388	          0.89202568	          0.00000000	          0.06525098	          0.00000000	          0.00000000	          0.00000000	          0.00000000	          0.00000000	          0.00000000	          0.00000000	          4.80465062	          0.00000000	          0.00000000	          0.00000000	          0.00000000	
          1.56800000	        207.10459090	        762.06855999	         -9.76504037	          0.89232060	          0.00000000	          0.06483168	          0.00000000	          0.00000000	          0.00000000	          0.00000000	          0.00000000	          0.00000000	          0.00000000	          4.74045958	          0.00000000	          0.00000000	          0.00000000	          0.00000000	
          1.57200000	        214.09265044	        751.86999988	         -9.29263293	          0.89254780	          0.00000000	          0.06443365	          0.00000000	          0.00000000	          0.00000000	          0.00000000	          0.00000000	          0.00000000	          0.00000000	          4.68351030	          0.00000000	          0.00000000	          0.00000000	          0.00000000	
          1.57600000	        220.39417623	        739.23694341	         -9.27153828	          0.89272481	          0.00000000	          0.06405786	          0.00000000	          0.00000000	          0.00000000	          0.00000000	          0.00000000	          0.00000000	          0.00000000	          4.63046580	          0.00000000	          0.00000000	          0.00000000	          0.00000000	
          1.58000000	        225.82249079	        724.01656492	         -9.51598770	          0.89286399	          0.00000000	          0.06369419	          0.00000000	          0.00000000	          0.00000000	          0.00000000	          0.00000000	          0.00000000	          0.00000000	          4.56709573	          0.00000000	          0.00000000	          0.00000000	          0.00000000	
          1.58400000	        230.31521475	        705.98865332	         -9.77936693	          0.89294946	          0.00000000	          0.06333484	          0.00000000	          0.00000000	          0.00000000	          0.00000000	          0.00000000	          0.00000000	          0.00000000	          4.47096366	          0.00000000	          0.00000000	          0.00000000	          0.00000000	
          1.58800000	        233.83144487	        684.79880829	         -9.78512776	          0.89292407	          0.00000000	          0.06297004	          0.00000000	          0.00000000	          0.00000000	          0.00000000	          0.00000000	          0.00000000	          0.00000000	          4.31796809	          0.00000000	          0.00000000	          0.00000000	          0.00000000	
          1.59200000	        236.20642235	        659.93581893	         -9.28784208	          0.89275328	          0.00000000	          0.06259626	          0.00000000	          0.00000000	          0.00000000	          0.00000000	          0.00000000	          0.00000000	          0.00000000	          4.09061115	          0.00000000	          0.00000000	          0.00000000	          0.00000000	
          1.59600000	        237.09484712	        630.79438937	         -8.14258994	          0.89246202	          0.00000000	          0.06222081	          0.00000000	          0.00000000	          0.00000000	          0.00000000	          0.00000000	          0.00000000	          0.00000000	          3.78514178	          0.00000000	          0.00000000	          0.00000000	          0.00000000	
          1.60000000	        236.01724329	        596.81830543	         -6.33386802	          0.89211626	          0.00000000	          0.06185143	          0.00000000	          0.00000000	          0.00000000	          0.00000000	          0.00000000	          0.00000000	          0.00000000	          3.41487263	          0.00000000	          0.00000000	          0.00000000	          0.00000000	
          1.60400000	        232.40250860	        557.68289978	         -3.94156380	          0.89177772	          0.00000000	          0.06150047	          0.00000000	          0.00000000	          0.00000000	          0.00000000	          0.00000000	          0.00000000	          0.00000000	          3.00815429	          0.00000000	          0.00000000	          0.00000000	          0.00000000	
          1.60800000	        225.60752748	        513.45974981	         -1.08975918	          0.89146820	          0.00000000	          0.06117727	          0.00000000	          0.00000000	          0.00000000	          0.00000000	          0.00000000	          0.00000000	          0.00000000	          2.60147423	          0.00000000	          0.00000000	          0.00000000	          0.00000000	
          1.61200000	        215.01418906	        464.74775347	          2.04126669	          0.89127604	          0.00000000	          0.06088587	          0.00000000	          0.00000000	          0.00000000	          0.00000000	          0.00000000	          0.00000000	          0.00000000	          2.23032564	          0.00000000	          0.00000000	          0.00000000	          0.00000000	
          1.61600000	        200.22938092	        412.76304919	          5.17368198	          0.89136708	          0.00000000	          0.06062128	          0.00000000	          0.00000000	          0.00000000	          0.00000000	          0.00000000	          0.00000000	          0.00000000	          1.92150647	          0.00000000	          0.00000000	          0.00000000	          0.00000000	
          1.62000000	        181.28884292	        359.28205742	          7.96706618	          0.89194920	          0.00000000	          0.06035530	          0.00000000	          0.00000000	          0.00000000	          0.00000000	          0.00000000	          0.00000000	          0.00000000	          1.68923173	          0.00000000	          0.00000000	          0.00000000	          0.00000000	
